<svg width="32" height="33" viewBox="0 0 32 33" fill="none" xmlns="http://www.w3.org/2000/svg">
<path d="M19.672 7.04547L23.1749 13.0341H26.9091V15.1875H25.636L24.8102 24.9672C24.7875 25.2363 24.6632 25.4871 24.462 25.67C24.2607 25.8528 23.9972 25.9544 23.7237 25.9546H8.2764C8.00285 25.9544 7.73934 25.8528 7.53809 25.67C7.33685 25.4871 7.21256 25.2363 7.18985 24.9672L6.36294 15.1875H5.09094V13.0341H8.82403L12.328 7.04547L14.2175 8.12218L11.344 13.0341H20.6549L17.7826 8.12218L19.672 7.04547ZM23.4466 15.1875H8.5524L9.28003 23.8012H22.7189L23.4466 15.1875ZM17.0909 17.3409V21.6477H14.9091V17.3409H17.0909ZM12.7273 17.3409V21.6477H10.5455V17.3409H12.7273ZM21.4546 17.3409V21.6477H19.2728V17.3409H21.4546Z" fill="black"/>
</svg>
